<svg width="127" height="54" viewBox="0 0 127 54" fill="none" xmlns="http://www.w3.org/2000/svg">
<path d="M68.5299 39.4019H61.5237V29.9467H62.475V38.5148H66.8394V29.9467H67.7907V38.5148H69.4105V40.816H68.5299V39.4019ZM70.8567 29.9467H76.2753V30.8787H71.8016V33.8354H76.2368V34.761H71.8016V38.4698H76.2368V39.4019H70.8567V29.9467ZM77.4066 29.9467H78.5122L80.7747 33.6362L83.0566 29.9467H84.1493L81.334 34.5296L84.3357 39.4019H83.2301L80.7747 35.4359L78.3065 39.4019H77.2009L80.2155 34.5296L77.4066 29.9467Z" fill="white"/>
<path d="M61.512 25.7808V16.3256H66.2492V17.2576H62.444V20.2786H62.8875C64.066 20.2786 64.9208 20.3836 65.4522 20.5936C65.9878 20.7993 66.4078 21.1271 66.712 21.577C67.0206 22.0227 67.1748 22.5198 67.1748 23.0683C67.1748 23.7882 66.9049 24.4202 66.3649 24.9644C65.825 25.5087 65.073 25.7808 64.1088 25.7808H61.512ZM62.444 21.2299V24.8552H63.6074C64.2973 24.8552 64.803 24.7887 65.1244 24.6559C65.4458 24.5188 65.7007 24.311 65.8893 24.0324C66.0821 23.7496 66.1785 23.4346 66.1785 23.0875C66.1785 22.6505 66.0436 22.2798 65.7736 21.9755C65.5036 21.6713 65.1672 21.472 64.7644 21.3778C64.3616 21.2792 63.7638 21.2299 62.9711 21.2299H62.444ZM76.4951 25.7808H75.5116V18.5367L69.2831 25.7808H69.071V16.3256H70.0159V23.6982L76.2829 16.3256H76.4951V25.7808ZM79.0019 17.2447C79.6661 16.4734 80.4867 16.0877 81.4637 16.0877C82.2393 16.0877 82.8799 16.3127 83.3856 16.7626C83.8912 17.2083 84.1441 17.7868 84.1441 18.4981C84.1441 19.5051 83.6705 20.2272 82.7235 20.6643C83.9705 21.0499 84.594 21.8856 84.594 23.1711C84.594 24.0281 84.3155 24.718 83.7584 25.2408C83.2013 25.7636 82.4386 26.025 81.4701 26.025C80.7931 26.025 80.2039 25.8857 79.7025 25.6072C79.2054 25.3244 78.7362 24.8316 78.2948 24.1288L79.0276 23.6982C79.4647 24.3409 79.8739 24.7545 80.2553 24.9387C80.6367 25.1187 81.033 25.2087 81.4444 25.2087C82.0443 25.2087 82.5543 25.0351 82.9742 24.688C83.3942 24.3409 83.6041 23.831 83.6041 23.1582C83.6041 22.8026 83.5313 22.494 83.3856 22.2327C83.2442 21.967 83.0428 21.7527 82.7814 21.5899C82.52 21.427 82.2714 21.3242 82.0358 21.2813C81.8001 21.2385 81.4123 21.2171 80.8723 21.2171H80.7116V20.3879H81.0266C82.4279 20.3879 83.1285 19.8201 83.1285 18.6845C83.1285 18.1575 82.9678 17.7397 82.6464 17.4311C82.3293 17.1183 81.9265 16.9619 81.438 16.9619C80.8038 16.9619 80.2081 17.249 79.6511 17.8232L79.0019 17.2447ZM86.4452 16.3256H87.3965V20.2915H92.2044V16.3256H93.1557V25.7808H92.2044V21.2171H87.3965V25.7808H86.4452V16.3256ZM95.4633 16.3256H100.882V17.2576H96.4082V20.2143H100.843V21.1399H96.4082V24.8487H100.843V25.7808H95.4633V16.3256ZM111.321 18.0803L110.575 18.6524C110.164 18.1168 109.669 17.7118 109.09 17.4376C108.516 17.159 107.884 17.0198 107.194 17.0198C106.44 17.0198 105.741 17.2019 105.098 17.5661C104.456 17.9261 103.956 18.4124 103.601 19.0252C103.249 19.6337 103.074 20.3193 103.074 21.0821C103.074 22.2348 103.468 23.1968 104.256 23.9681C105.049 24.7395 106.048 25.1251 107.252 25.1251C108.576 25.1251 109.684 24.6066 110.575 23.5696L111.321 24.1353C110.849 24.7352 110.26 25.2001 109.553 25.5301C108.85 25.8558 108.064 26.0186 107.194 26.0186C105.54 26.0186 104.235 25.4679 103.279 24.3667C102.478 23.4368 102.077 22.3141 102.077 20.9985C102.077 19.6144 102.562 18.451 103.53 17.5083C104.503 16.5612 105.72 16.0877 107.181 16.0877C108.064 16.0877 108.861 16.2634 109.572 16.6148C110.284 16.9619 110.866 17.4504 111.321 18.0803Z" fill="white"/>
<circle cx="27" cy="27" r="27" fill="white"/>
<path d="M31.4549 33.5491H23.9859V34.591H31.4549V33.5491Z" fill="#292929"/>
<path d="M31.4653 19.1989V18.0847H24.5121H23.4702V19.1989V25.6466H21.0871V26.6885H23.4702V31.3102H24.5121V26.6885H29.1648V25.6466H24.5121V19.1989H31.4653Z" fill="#292929"/>
<path d="M6.55896 18.0847V33.1568V34.0027V34.1988H16.0413L17.0602 35.9149L18.3338 33.1568H7.60091V18.0847H6.55896Z" fill="#292929"/>
<path d="M16.9965 18.0847H15.9777V31.33H16.9965V18.0847Z" fill="#292929"/>
<path d="M35.9322 34.2503L47.2079 18.3014L45.8565 18.3323L40.946 25.2545L35.9322 18.0847H34.5808L40.2857 26.1727L34.5808 34.2503H35.9322Z" fill="#292929"/>
<path d="M41.5649 28.1639L45.9287 34.2712L47.4555 34.2505L42.2974 27.2974L41.5649 28.1639Z" fill="#292929"/>
</svg>
