<svg width="23" height="30" viewBox="0 0 23 30" fill="none" xmlns="http://www.w3.org/2000/svg">
<path d="M9.09894 1.92158H14.0153V2.74883H15.7908V1.80577C15.791 0.890538 15.0468 0.145874 14.132 0.145874H8.98224C8.06746 0.145874 7.32324 0.890538 7.32324 1.80577V2.74883H9.09894V1.92158Z" fill="white"/>
<path d="M19.8915 9.78394H3.22345C2.76673 9.78394 2.40719 10.1735 2.444 10.6289L3.8375 27.8599C3.91515 28.8218 4.71749 29.5626 5.68142 29.5626H17.4333C18.3973 29.5626 19.1996 28.8218 19.2773 27.8596L20.6707 10.6289C20.7078 10.1735 20.3482 9.78394 19.8915 9.78394V9.78394ZM7.2594 27.7248C7.24077 27.7259 7.22215 27.7266 7.20374 27.7266C6.73827 27.7266 6.34754 27.3641 6.31858 26.8932L5.44532 12.7476C5.41525 12.2581 5.78758 11.8368 6.27684 11.8067C6.76453 11.7771 7.18758 12.1485 7.21766 12.6383L8.09069 26.7839C8.12099 27.2734 7.74866 27.6945 7.2594 27.7248V27.7248ZM12.4552 26.8387C12.4552 27.3289 12.0577 27.7263 11.5674 27.7263C11.077 27.7263 10.6795 27.3289 10.6795 26.8387V12.6928C10.6795 12.2024 11.077 11.8049 11.5674 11.8049C12.0575 11.8049 12.4552 12.2024 12.4552 12.6928V26.8387ZM17.6697 12.7451L16.8359 26.8908C16.8083 27.3625 16.4169 27.7263 15.9505 27.7263C15.933 27.7263 15.9153 27.7259 15.8975 27.725C15.4081 27.696 15.0346 27.2759 15.0636 26.7864L15.8971 12.6405C15.9258 12.151 16.3446 11.7776 16.8354 11.8065C17.3249 11.8352 17.6984 12.2556 17.6697 12.7451V12.7451Z" fill="white"/>
<path d="M22.9619 7.044L22.3788 5.29613C22.2251 4.83537 21.7937 4.52454 21.3078 4.52454H1.80719C1.32152 4.52454 0.889942 4.83537 0.73643 5.29613L0.153357 7.044C0.0409173 7.3811 0.187247 7.72493 0.46038 7.89639C0.571698 7.96619 0.703439 8.00816 0.848197 8.00816H22.267C22.4118 8.00816 22.5438 7.96619 22.6549 7.89617C22.928 7.7247 23.0743 7.38087 22.9619 7.044Z" fill="white"/>
</svg>
