<svg width="23" height="23" viewBox="0 0 23 23" fill="none" xmlns="http://www.w3.org/2000/svg">
<path d="M20.7 0H2.3C1.035 0 0 1.035 0 2.3V20.7C0 21.965 1.035 23 2.3 23H20.7C21.965 23 23 21.965 23 20.7V2.3C23 1.035 21.965 0 20.7 0ZM11.5 6.9C14.03 6.9 16.1 8.97 16.1 11.5C16.1 14.03 14.03 16.1 11.5 16.1C8.97 16.1 6.9 14.03 6.9 11.5C6.9 8.97 8.97 6.9 11.5 6.9ZM2.875 20.7C2.53 20.7 2.3 20.47 2.3 20.125V10.35H4.715C4.6 10.695 4.6 11.155 4.6 11.5C4.6 15.295 7.705 18.4 11.5 18.4C15.295 18.4 18.4 15.295 18.4 11.5C18.4 11.155 18.4 10.695 18.285 10.35H20.7V20.125C20.7 20.47 20.47 20.7 20.125 20.7H2.875ZM20.7 5.175C20.7 5.52 20.47 5.75 20.125 5.75H17.825C17.48 5.75 17.25 5.52 17.25 5.175V2.875C17.25 2.53 17.48 2.3 17.825 2.3H20.125C20.47 2.3 20.7 2.53 20.7 2.875V5.175Z" fill="#F4E5D0"/>
</svg>
