<svg width="18" height="25" viewBox="0 0 18 25" fill="none" xmlns="http://www.w3.org/2000/svg">
<path d="M8.57343 0C5.19384 0 2.44543 2.74841 2.44543 6.128C2.44543 9.50759 5.19384 12.256 8.57343 12.256C11.953 12.256 14.7014 9.50759 14.7014 6.128C14.7014 2.74841 11.953 0 8.57343 0ZM8.57343 9.192C6.88364 9.192 5.50943 7.81779 5.50943 6.128C5.50943 4.4382 6.88364 3.064 8.57343 3.064C10.2632 3.064 11.6374 4.4382 11.6374 6.128C11.6374 7.81779 10.2632 9.192 8.57343 9.192Z" fill="#F4E5D0"/>
<path d="M16.6992 12.086C16.1002 11.487 15.1319 11.487 14.5329 12.086C11.2483 15.3706 5.90164 15.3706 2.61551 12.086C2.01649 11.487 1.04827 11.487 0.449259 12.086C-0.149753 12.685 -0.149753 13.6532 0.449259 14.2538C2.35507 16.1596 4.77103 17.2458 7.26206 17.5292L2.89433 21.8969C2.29532 22.4959 2.29532 23.4641 2.89433 24.0631C3.49334 24.6622 4.46157 24.6622 5.06058 24.0631L8.57345 20.5503L12.0863 24.0631C12.3851 24.3619 12.7773 24.512 13.1695 24.512C13.5616 24.512 13.9538 24.3619 14.2526 24.0631C14.8516 23.4641 14.8516 22.4959 14.2526 21.8969L9.88484 17.5292C12.3759 17.2458 14.7918 16.1596 16.6976 14.2538C17.2967 13.6547 17.2967 12.685 16.6992 12.086Z" fill="#F4E5D0"/>
</svg>
