<svg width="33" height="19" viewBox="0 0 33 19" fill="none" xmlns="http://www.w3.org/2000/svg">
<path fill-rule="evenodd" clip-rule="evenodd" d="M27.8409 11.6402C28.914 12.6878 30.0466 13.6735 31.009 14.8268C31.4341 15.3393 31.8366 15.8682 32.1445 16.463C32.5808 17.3085 32.1857 18.2389 31.4275 18.2894L26.7148 18.2872C25.4993 18.3881 24.5297 17.8988 23.7144 17.0677C23.0619 16.4031 22.4577 15.6958 21.8303 15.0088C21.5731 14.728 21.3038 14.4637 20.9822 14.2549C20.3389 13.8373 19.7805 13.9651 19.4128 14.6361C19.0384 15.3186 18.9534 16.0743 18.9167 16.8349C18.8662 17.9446 18.5308 18.2363 17.416 18.2871C15.0338 18.3995 12.7729 18.0391 10.6725 16.8373C8.82084 15.7778 7.38493 14.2822 6.13512 12.589C3.70172 9.29189 1.83822 5.66894 0.163373 1.94449C-0.213621 1.10537 0.0620835 0.65493 0.987935 0.638988C2.52535 0.609121 4.06256 0.611247 5.60178 0.636862C6.22663 0.646003 6.64029 1.0044 6.88156 1.5947C7.71335 3.63995 8.73114 5.58583 10.0087 7.38949C10.3489 7.86968 10.6958 8.34988 11.1898 8.68787C11.7364 9.0621 12.1525 8.93807 12.4096 8.32926C12.5727 7.94323 12.6441 7.52745 12.6809 7.114C12.8027 5.69158 12.8188 4.27161 12.6051 2.85419C12.474 1.96957 11.9757 1.39691 11.093 1.22951C10.6426 1.14416 10.7096 0.97655 10.9277 0.719446C11.3065 0.276024 11.6628 0 12.373 0H17.6991C18.5376 0.165486 18.7238 0.542162 18.8386 1.38585L18.8431 7.30201C18.834 7.62863 19.0063 8.59785 19.5946 8.81403C20.0654 8.96793 20.3758 8.59126 20.6583 8.2927C21.9335 6.93926 22.8436 5.33977 23.6567 3.68353C24.0175 2.95526 24.3278 2.19894 24.6284 1.44325C24.8512 0.882487 25.2008 0.60657 25.8324 0.618793L30.9585 0.623363C31.1105 0.623363 31.2643 0.625596 31.4115 0.650785C32.2753 0.79799 32.5119 1.16956 32.2452 2.01304C31.8248 3.3364 31.0069 4.43922 30.2073 5.54714C29.3524 6.72999 28.4381 7.87234 27.5904 9.06221C26.8115 10.1488 26.8734 10.6965 27.8409 11.6402Z" fill="#F4E5D0"/>
</svg>
